<?xml version="1.0" encoding="utf-8"?>
<svg version="1.1" id="Layer_1" xmlns="http://www.w3.org/2000/svg" xmlns:xlink="http://www.w3.org/1999/xlink" x="0px" y="0px"
	 viewBox="0 0 1621.909 1622.655" enable-background="new 0 0 1621.909 1622.655" xml:space="preserve">
<g>
	<g>
		<g>
			<line fill="none" stroke="#000000" stroke-miterlimit="10" x1="597.319" y1="69.01" x2="597.319" y2="69.01"/>
			<path fill="none" stroke="#000000" stroke-miterlimit="10" d="M793.305,1565.971c24.487,49.883,142.647,43.639,252.25,8.75
				c54.989-17.531,103.923-41.109,138.827-70.55c27.736-23.424,42.726-53.799,31.774-72.743
				c-28.516-48.989-143.809-40.745-250.672-6.827C862.345,1457.404,772.444,1523.032,793.305,1565.971"/>
			<path fill="none" stroke="#000000" stroke-miterlimit="10" d="M573.675,1544.554c18.829,41.71,88.12,63.31,169.104,66.332
				c97.793,3.603,207.613-15.057,316.792-49.823c107.021-34.115,201.953-79.812,269.069-136.675
				c52.822-44.809,80.237-103.101,58.241-138.189c-25.409-40.354-96.089-57.702-176.845-59.095
				c-95.026-1.597-199.618,16.768-303.247,49.586c-101.89,32.299-193.512,75.395-261.331,129.436
				C590.437,1450.019,556.479,1506.251,573.675,1544.554"/>
			<path fill="none" stroke="#000000" stroke-miterlimit="10" d="M371.36,1464.04c11.465,27.295,40.39,49.688,77.133,64.245
				c43.066,17.037,96.641,25.371,156.709,27.451c66.256,2.278,138.065-3.231,213.108-15.116
				c78.149-12.39,157.158-31.324,234.834-56.034c76.876-24.467,150-53.801,216.994-87.688
				c62.902-31.831,118.346-66.557,163.118-104.327c39.516-33.357,69.681-68.326,84.081-103.542
				c12.278-30.089,10.685-62.816-5.314-86.508c-17.456-25.794-50.529-44.819-90.282-57.106
				c-45.6-14.073-99.615-20.147-158.852-20.563c-132.357-0.885-277.449,25.121-421.334,70.535
				c-141.536,44.716-269.175,103.883-364.831,177.98C398.889,1333.725,349.031,1410.641,371.36,1464.04"/>
			<path fill="none" stroke="#000000" stroke-miterlimit="10" d="M202.558,1330.081c12.827,32.176,47.005,58.624,90.641,75.611
				c51.516,20.024,115.9,29.548,188.345,31.627c80.189,2.282,167.269-4.781,258.456-19.474
				c95.089-15.336,191.302-38.494,285.97-68.537c93.661-29.738,182.721-65.221,264.297-106.068
				c76.432-38.289,143.701-79.886,197.947-125.017c47.648-39.667,83.942-81.091,101.011-122.725
				c14.444-35.305,11.951-73.813-7.673-101.114c-21.622-30.016-61.82-51.576-109.892-65.322
				c-55.225-15.767-120.288-22.093-191.557-21.819c-159.078,0.66-332.946,32.527-505.622,86.827
				c-85.878,27.024-168.272,59.004-245.03,95.759c-73.033,34.986-138.991,73.266-194.777,115.213
				c-50.35,37.88-91.097,77.645-115.765,119.167C197.799,1259.79,190.244,1299.092,202.558,1330.081"/>
			<path fill="none" stroke="#000000" stroke-miterlimit="10" d="M81.271,1152.664c13.231,34.038,49.997,61.865,96.997,79.467
				c55.89,20.9,125.863,30.406,204.809,31.97c87.63,1.715,182.889-6.604,282.803-23.086c104.29-17.221,209.879-42.786,313.873-75.68
				c102.863-32.552,200.689-71.157,290.357-115.411c83.882-41.417,157.691-86.206,217.285-134.683
				c52.13-42.432,91.887-86.542,110.599-130.888c15.691-37.265,12.844-78.121-8.554-106.49c-23.81-31.5-67.711-53.528-120.067-67.36
				c-60.329-15.913-131.164-21.739-208.757-20.599c-83.981,1.25-173.136,10.794-265.273,27.054
				c-95.102,16.797-190.81,40.351-285.117,69.901c-93.552,29.327-183.395,63.811-267.263,103.276
				c-79.803,37.566-152.019,78.522-213.398,123.32c-55.351,40.419-100.373,82.688-128.153,126.947
				C77.788,1078.089,68.562,1119.855,81.271,1152.664"/>
			<path fill="none" stroke="#000000" stroke-miterlimit="10" d="M18.082,945.573c12.908,32.907,49.565,59.434,96.288,75.926
				c55.929,19.71,125.849,28.125,204.864,28.812c87.861,0.743,183.372-8.317,283.654-25.323
				c104.724-17.775,210.797-43.638,315.375-76.586c103.429-32.601,201.854-71.001,292.216-114.812
				c84.459-40.967,158.85-85.067,219.147-132.691c52.588-41.561,92.868-84.542,112.153-127.869
				c16.009-36.042,13.558-75.855-7.519-102.97c-23.673-30.388-67.456-51.109-119.648-63.903
				c-60.413-14.784-131.261-19.636-208.961-17.708c-84.2,2.104-173.589,12.289-266.044,28.997
				c-95.462,17.265-191.569,41.067-286.356,70.659C559.23,517.47,468.882,551.78,384.419,590.866
				c-80.32,37.183-153.076,77.552-215.113,121.596c-55.829,39.657-101.364,80.937-129.788,124.223
				C15.535,873.255,5.715,913.936,18.082,945.573"/>
			<path fill="none" stroke="#000000" stroke-miterlimit="10" d="M19.06,725.47c11.981,29.149,45.865,52.103,88.773,66.119
				c51.625,16.837,115.877,23.45,188.511,23.185c80.808-0.312,168.562-9.352,260.731-25.439
				c96.246-16.813,193.744-40.762,289.965-70.95c95.167-29.87,185.823-64.804,269.247-104.472
				c77.973-37.091,146.802-76.852,202.927-119.705c48.878-37.341,86.572-75.755,105.19-114.661
				c15.3-32.037,13.895-67.747-4.868-91.688c-21.236-27.036-61.117-45.085-108.739-56.039
				c-55.446-12.732-120.536-16.432-192.09-14.036c-160.509,5.419-335.787,39.587-511.045,94.116
				c-87.144,27.13-170.904,58.639-249.263,94.372c-74.427,33.953-141.84,70.648-199.393,110.561
				c-51.631,35.824-93.755,72.923-120.144,111.827C16.791,661.239,7.661,697.636,19.06,725.47"/>
			<path fill="none" stroke="#000000" stroke-miterlimit="10" d="M84.974,510.592c10.406,23.347,38.948,41.144,74.77,51.834
				c43.223,12.876,96.645,17.432,156.974,16.467c67.064-1.086,139.752-9.154,216.064-22.844
				c79.641-14.298,160.307-34.254,239.987-59.149c78.819-24.637,154.005-53.261,223.389-85.622
				c64.903-30.282,122.379-62.634,169.6-97.448c41.135-30.344,73.127-61.408,89.583-93.063
				c13.406-25.836,13.302-54.898-1.566-74.201c-16.903-21.894-49.562-36.309-88.697-44.922
				c-45.879-10.078-99.913-12.685-159.515-10.297c-134.248,5.415-281.206,34.474-428.522,80.193
				c-144.801,44.975-275.667,101.248-376.534,169.98c-43.044,29.353-78.089,59.589-99.939,91.26
				C82.465,459.053,75.185,488.555,84.974,510.592"/>
			<path fill="none" stroke="#000000" stroke-miterlimit="10" d="M210.94,319.153c8.004,16.156,28.83,28.001,54.712,35.021
				c31.235,8.455,69.508,11.105,112.628,9.934c99.674-2.735,211.355-24.528,324.113-59.624
				c110.394-34.389,208.509-77.057,280.742-128.584c54.999-39.277,86.727-90.4,66.871-117.405
				c-24.985-33.811-94.915-41.889-175.855-38.339c-96.786,4.28-203.116,25.502-309.963,58.608
				C459.24,111.306,364.617,151.686,291.958,200.73C234.576,239.5,195.73,288.299,210.94,319.153"/>
			<path fill="none" stroke="#000000" stroke-miterlimit="10" d="M386.669,167.608c10.002,17.942,46.049,23.261,88.239,21.742
				c51.641-1.878,109.216-13.28,167.339-31.32c56.947-17.69,107.747-39.515,145.651-65.832C816.957,72,834.607,45.91,824.892,31.696
				c-12.074-17.572-48.372-21.842-90.565-19.96c-50.855,2.287-106.975,13.528-163.486,31.028
				C464.36,75.776,367.167,132.296,386.669,167.608"/>
			<line fill="none" stroke="#000000" stroke-miterlimit="10" x1="1013.104" y1="1527.161" x2="1013.104" y2="1527.161"/>
			<path fill="none" stroke="#000000" stroke-miterlimit="10" d="M597.319,69.01c-203.705,63.226-382.858,206.99-486.169,390.838
				C9.684,640.74-16.38,860.626,41.918,1051.84c57.799,189.014,199.175,351.271,377.484,437.636
				c180.29,87.148,398.548,99.732,593.702,37.684"/>
			<path fill="none" stroke="#000000" stroke-miterlimit="10" d="M597.319,69.01C413.522,92.764,247.056,199.146,158.813,349.795
				C69.679,502.288,54.93,701.13,109.921,883.173c115.183,379.843,521.388,673.975,903.183,643.988"/>
			<path fill="none" stroke="#000000" stroke-miterlimit="10" d="M597.319,69.01c-54.226-10.443-108.202-2.16-148.596,24.669
				c-41.24,27.44-71.87,75.032-89.512,130.995c-19.539,62.09-25.177,135.011-20.419,213.133
				c5.143,84.067,22.175,172.504,48.641,262.407c55.427,188.081,146.789,370.317,264.175,526.375
				c55.948,74.335,116.289,140.074,180.183,193.408c59.25,49.428,120.554,87.275,181.313,107.163"/>
			<path fill="none" stroke="#000000" stroke-miterlimit="10" d="M597.319,69.01c-1.458-24.057,5.471-37.503,10.695-31.939
				c12.96,13.848,24.648,43.953,40.163,84.485c19.49,50.932,40.086,112.256,62.286,182.477
				c24.536,77.619,49.557,161.852,74.951,251.273c53.422,188.147,103.508,380.715,147.098,566.379
				c20.277,86.383,38.077,166.935,52.709,240.412c12.909,64.841,22.744,120.189,27.884,165.063"/>
			<path fill="none" stroke="#000000" stroke-miterlimit="10" d="M597.319,69.01C697.746-6.427,839.748-4.109,941.482,69.872
				c116.961,85.235,201.654,240.372,250.35,418.046c51.803,189.362,61.743,395.245,28.863,589.839
				c-31.104,183.566-99.9,348.61-207.591,449.403"/>
			<path fill="none" stroke="#000000" stroke-miterlimit="10" d="M597.319,69.01c182.13-73.85,390.784-68.037,555.886,16.703
				c164.397,84.562,288.753,247.77,338.374,433.423c101.944,383.162-117.485,845.934-478.476,1008.025"/>
			<path fill="none" stroke="#000000" stroke-miterlimit="10" d="M597.319,69.01c206.133-45.827,433.101-9.533,617.599,98.141
				c182.37,106.616,320.802,283.084,372.712,478.364c50.583,190.922,16.305,401.322-90.316,562.932
				c-107.437,162.552-287.383,278.82-484.21,318.712"/>
			<path fill="none" stroke="#000000" stroke-miterlimit="10" d="M597.319,69.01c81.412-0.583,167.511,19.561,251.069,56.455
				c88.012,38.898,172.768,95.792,249.942,165.978c159.441,145.133,279.343,338.407,334.385,541.788
				c26.159,96.837,36.544,193.774,28.598,284.368c-7.539,85.557-31.936,165.441-72.636,230.561
				c-76.586,122.316-225.979,190.401-375.573,179"/>
			<path fill="none" stroke="#000000" stroke-miterlimit="10" d="M597.319,69.01c35.44,25.071,71.108,68.401,108.553,123.454
				c43.524,64.017,86.192,140.305,128.346,226.032c92.339,187.859,170.883,395.211,229.066,602.598
				c27.17,96.899,48.023,188.207,60.793,271.94c11.239,73.777,15.99,137.835,10.059,189.456
				c-4.629,40.128-18.202,72.551-39.948,80.136c-21.814,7.563-52.395-8.73-81.085-35.466"/>
			<path fill="none" stroke="#000000" stroke-miterlimit="10" d="M597.319,69.01c-29.97,41.015-50.444,99.929-64.453,169.408
				c-15.908,79.008-22.716,168.693-22.327,265.716c0.893,210.526,33.655,430.964,93.903,637.14
				c28.239,96.556,61.425,184.78,100.142,261.15c34.54,68.09,72.072,124.361,113.679,162.193
				c34.549,31.377,74.565,48.427,108.266,41.554c33.976-6.972,64.695-37.852,86.575-79.01"/>
			<path fill="none" stroke="#000000" stroke-miterlimit="10" d="M597.319,69.01c-159.588,85.205-288.442,252.495-357.57,449.791
				c-71.372,204.11-78.824,431.993-18.498,632.178c56.772,187.924,177.589,345.515,329.326,415.313
				c144.223,66.165,322.325,48.241,462.528-39.132"/>
			<path fill="none" stroke="#000000" stroke-miterlimit="10" d="M597.319,69.01c-203.705,63.226-382.858,206.99-486.169,390.838
				C9.684,640.74-16.38,860.626,41.918,1051.84c57.799,189.014,199.175,351.271,377.484,437.636
				c180.29,87.148,398.548,99.732,593.702,37.684"/>
		</g>
	</g>
</g>
</svg>
